<?xml version="1.0" standalone="no"?>
<!DOCTYPE svg PUBLIC "-//W3C//DTD SVG 20010904//EN"
 "http://www.w3.org/TR/2001/REC-SVG-20010904/DTD/svg10.dtd">
<svg version="1.0" xmlns="http://www.w3.org/2000/svg"
 width="433.000000pt" height="433.000000pt" viewBox="0 0 433.000000 433.000000"
 preserveAspectRatio="xMidYMid meet">
<metadata>
Created by potrace 1.11, written by Peter Selinger 2001-2013
</metadata>
<g transform="translate(0.000000,433.000000) scale(0.100000,-0.100000)"
fill="#000000" stroke="none">
<path d="M0 2165 l0 -2165 2165 0 2165 0 0 2165 0 2165 -2165 0 -2165 0 0
-2165z m2540 1634 c599 -54 982 -311 1125 -754 58 -180 78 -419 52 -615 -78
-575 -448 -920 -1094 -1017 -103 -16 -196 -18 -745 -18 l-628 0 0 -437 0 -438
-325 0 -325 0 0 1645 0 1645 913 0 c557 0 957 -4 1027 -11z"/>
<path d="M1250 2600 l0 -631 628 3 c606 4 630 4 703 25 259 73 408 228 455
471 57 299 -60 566 -299 682 -157 75 -136 73 -849 77 l-638 4 0 -631z"/>
</g>
</svg>
